# xmcd
#
# Track frame offsets: 
#        150
#        17344
#        30974
#        44546
#        59433
#        72811
#        88068
#        103596
#        115782
#        127845
#        140380
#        153698
#        168214
#        181689
#        196868
#        208250
#        221400
#        232014
#        246259
#        251442
#        260030
#        271940
#
# Disc length: 3836 seconds
#
# Revision: 2
# Processed by: cddbd v1.5.2PL0 Copyright (c) Steve Scherf et al.
# Submitted via: ExactAudioCopy v1.1
#
DISCID=300efa16
DTITLE=Paul Robeson - Ol' Man River
DYEAR=2000
DGENRE=Folk/Rock
TTITLE0=Ol' Man River
TTITLE1=Water Boy
TTITLE2=Nobody Knows De Trouble I've Seen
TTITLE3=Lazy Bones
TTITLE4=The Banjo Song
TTITLE5=River Stay 'Way From My Door
TTITLE6=St. Louis Blues
TTITLE7=Song Of the Volga Boatman
TTITLE8=The Lonesome Road
TTITLE9=Swing Low, Sweet Chariot
TTITLE10=Sometimes I feel Like A Motherless Child
TTITLE11=Little Man, You've Had A Busy Day
TTITLE12=Ma Curly Headed Baby
TTITLE13=Mighty Lak' A Rose
TTITLE14=It Ain't Necessarily So
TTITLE15=Canoe Song
TTITLE16=Deep River
TTITLE17=Shenandoah
TTITLE18=Shortnin' Bread
TTITLE19=Paul Robeson and Lawrence Brown - Joshua Fit De Battle Ob Jeric
TTITLE19=ho
TTITLE20=The Cobbler's Song
TTITLE21=Rockin' Chair
EXTD=
EXTT0=
EXTT1=
EXTT2=
EXTT3=
EXTT4=
EXTT5=
EXTT6=
EXTT7=
EXTT8=
EXTT9=
EXTT10=
EXTT11=
EXTT12=
EXTT13=
EXTT14=
EXTT15=
EXTT16=
EXTT17=
EXTT18=
EXTT19=
EXTT20=
EXTT21=
PLAYORDER=
